<?xml version="1.0" ?><svg fill="none" height="24" viewBox="0 0 24 24" width="24" xmlns="http://www.w3.org/2000/svg"><g id="Discount"><path clip-rule="evenodd" d="M10.7626 1.17675C11.446 0.49333 12.554 0.49333 13.2374 1.17675L13.6841 1.62338C13.7584 1.69769 13.8712 1.7176 13.9665 1.67318L14.5389 1.40624C15.4149 0.997782 16.4561 1.37675 16.8646 2.2527L17.3657 3.32745C17.4068 3.4155 17.4952 3.4718 17.5923 3.4718H18.7782C19.7447 3.4718 20.5282 4.2553 20.5282 5.2218V6.40766C20.5282 6.50482 20.5845 6.59318 20.6725 6.63424L21.7473 7.1354C22.6232 7.54386 23.0022 8.58508 22.5937 9.46102L22.3268 10.0335C22.2824 10.1287 22.3023 10.2416 22.3766 10.3159L22.8232 10.7625C23.5066 11.446 23.5066 12.554 22.8232 13.2374L22.3766 13.684C22.3023 13.7584 22.2824 13.8712 22.3268 13.9665L22.5937 14.5389C23.0022 15.4149 22.6232 16.4561 21.7473 16.8645L20.6725 17.3657C20.5845 17.4068 20.5282 17.4951 20.5282 17.5923V18.7781C20.5282 19.7446 19.7447 20.5281 18.7782 20.5281H17.5923C17.4951 20.5281 17.4068 20.5844 17.3657 20.6725L16.8646 21.7472C16.4561 22.6232 15.4149 23.0022 14.5389 22.5937L13.9665 22.3268C13.8712 22.2823 13.7584 22.3022 13.6841 22.3766L13.2374 22.8232C12.554 23.5066 11.446 23.5066 10.7626 22.8232L10.3159 22.3766C10.2416 22.3022 10.1288 22.2823 10.0335 22.3268L9.46105 22.5937C8.5851 23.0022 7.54389 22.6232 7.13543 21.7472L6.63426 20.6725C6.5932 20.5844 6.50484 20.5281 6.40768 20.5281H5.22182C4.25533 20.5281 3.47182 19.7446 3.47182 18.7781V17.5923C3.47182 17.4951 3.41553 17.4068 3.32748 17.3657L2.25272 16.8645C1.37677 16.4561 0.997801 15.4149 1.40626 14.5389L1.6732 13.9665C1.71762 13.8712 1.69772 13.7583 1.6234 13.684L1.17678 13.2374C0.49336 12.554 0.493361 11.446 1.17678 10.7625L1.62341 10.3159C1.69772 10.2416 1.71762 10.1287 1.67321 10.0335L1.40627 9.46102C0.997806 8.58508 1.37678 7.54386 2.25272 7.1354L3.32748 6.63424C3.41553 6.59317 3.47182 6.50482 3.47182 6.40766V5.2218C3.47182 4.2553 4.25533 3.4718 5.22182 3.4718H6.40768C6.50484 3.4718 6.59319 3.41551 6.63426 3.32745L7.13542 2.2527C7.54388 1.37675 8.5851 0.997779 9.46104 1.40624L10.0335 1.67318C10.1288 1.7176 10.2416 1.6977 10.3159 1.62338L10.7626 1.17675ZM12.1768 2.23741C12.0791 2.13978 11.9209 2.13978 11.8232 2.23741L11.3766 2.68404C10.8564 3.20426 10.0663 3.34356 9.39957 3.03264L8.82711 2.7657C8.70198 2.70735 8.55323 2.76149 8.49488 2.88662L7.99372 3.96138C7.70629 4.57776 7.08778 4.9718 6.40768 4.9718H5.22182C5.08375 4.9718 4.97182 5.08373 4.97182 5.2218V6.40766C4.97182 7.08776 4.57779 7.70627 3.96141 7.9937L2.88665 8.49486C2.76152 8.55321 2.70738 8.70196 2.76573 8.8271L3.03267 9.39955C3.34359 10.0663 3.20428 10.8564 2.68407 11.3766L2.23744 11.8232C2.13981 11.9208 2.13981 12.0791 2.23744 12.1767L2.68406 12.6234C3.20428 13.1436 3.34358 13.9336 3.03266 14.6004L2.76572 15.1728C2.70737 15.298 2.76151 15.4467 2.88665 15.5051L3.96141 16.0062C4.57779 16.2937 4.97182 16.9122 4.97182 17.5923V18.7781C4.97182 18.9162 5.08375 19.0281 5.22182 19.0281H6.40768C7.08779 19.0281 7.7063 19.4222 7.99372 20.0386L8.49489 21.1133C8.55324 21.2385 8.70198 21.2926 8.82712 21.2342L9.39957 20.9673C10.0663 20.6564 10.8564 20.7957 11.3766 21.3159L11.8232 21.7625C11.9209 21.8602 12.0791 21.8602 12.1768 21.7625L12.6234 21.3159C13.1436 20.7957 13.9337 20.6564 14.6004 20.9673L15.1729 21.2342C15.298 21.2926 15.4467 21.2385 15.5051 21.1133L16.0063 20.0386C16.2937 19.4222 16.9122 19.0281 17.5923 19.0281H18.7782C18.9162 19.0281 19.0282 18.9162 19.0282 18.7781V17.5923C19.0282 16.9122 19.4222 16.2937 20.0386 16.0062L21.1133 15.5051C21.2385 15.4467 21.2926 15.298 21.2343 15.1728L20.9673 14.6004C20.6564 13.9336 20.7957 13.1436 21.3159 12.6234L21.7626 12.1767C21.8602 12.0791 21.8602 11.9208 21.7626 11.8232L21.3159 11.3766C20.7957 10.8563 20.6564 10.0663 20.9673 9.39954L21.2343 8.82709C21.2926 8.70196 21.2385 8.55321 21.1133 8.49486L20.0386 7.9937C19.4222 7.70627 19.0282 7.08776 19.0282 6.40766V5.2218C19.0282 5.08372 18.9162 4.9718 18.7782 4.9718H17.5923C16.9122 4.9718 16.2937 4.57776 16.0063 3.96138L15.5051 2.88663C15.4468 2.76149 15.298 2.70735 15.1729 2.7657L14.6004 3.03264C13.9337 3.34356 13.1436 3.20425 12.6234 2.68404L12.1768 2.23741Z" fill="black" fill-rule="evenodd" id="Union (Stroke)"/><path clip-rule="evenodd" d="M16.773 7.22705C17.0659 7.51994 17.0659 7.99481 16.773 8.28771L8.28769 16.773C7.9948 17.0659 7.51993 17.0659 7.22703 16.773C6.93414 16.4801 6.93414 16.0052 7.22703 15.7123L15.7123 7.22705C16.0052 6.93415 16.4801 6.93415 16.773 7.22705Z" fill="black" fill-rule="evenodd" id="Vector 66 (Stroke)"/><path clip-rule="evenodd" d="M7.25 8C7.25 7.0335 8.0335 6.25 9 6.25C9.9665 6.25 10.75 7.0335 10.75 8V9C10.75 9.9665 9.9665 10.75 9 10.75C8.0335 10.75 7.25 9.9665 7.25 9V8ZM9 7.75C8.86193 7.75 8.75 7.86193 8.75 8V9C8.75 9.13807 8.86193 9.25 9 9.25C9.13807 9.25 9.25 9.13807 9.25 9V8C9.25 7.86193 9.13807 7.75 9 7.75Z" fill="black" fill-rule="evenodd" id="Rectangle 36 (Stroke)"/><path clip-rule="evenodd" d="M13.25 14C13.25 13.0335 14.0335 12.25 15 12.25C15.9665 12.25 16.75 13.0335 16.75 14V15C16.75 15.9665 15.9665 16.75 15 16.75C14.0335 16.75 13.25 15.9665 13.25 15V14ZM15 13.75C14.8619 13.75 14.75 13.8619 14.75 14V15C14.75 15.1381 14.8619 15.25 15 15.25C15.1381 15.25 15.25 15.1381 15.25 15V14C15.25 13.8619 15.1381 13.75 15 13.75Z" fill="black" fill-rule="evenodd" id="Rectangle 37 (Stroke)"/></g></svg>