<?xml version="1.0" ?><!DOCTYPE svg  PUBLIC '-//W3C//DTD SVG 1.1//EN'  'http://www.w3.org/Graphics/SVG/1.1/DTD/svg11.dtd'><svg height="512px" style="enable-background:new 0 0 512 512;" version="1.1" viewBox="0 0 512 512" width="512px" xml:space="preserve" xmlns="http://www.w3.org/2000/svg" xmlns:xlink="http://www.w3.org/1999/xlink"><g id="_x36_39_x2C__America_x2C__american_x2C__captain_x2C__states_x2C__united_x2C__usa_x2C__medal"><g><g><g><g><path d="M256.347,310.956c-71.682,0-130-58.317-130-130s58.318-130,130-130s130,58.318,130,130       S328.029,310.956,256.347,310.956z M256.347,70.957c-60.654,0-110,49.346-110,110c0,60.654,49.346,110,110,110       c60.655,0,110-49.346,110-110C366.348,120.302,317.002,70.957,256.347,70.957z"/></g><g><path d="M166.347,500.956c-1.754,0-3.507-0.461-5.071-1.381c-3.054-1.797-4.929-5.076-4.929-8.619V313.255       c0-3.706,2.05-7.108,5.327-8.841c3.278-1.732,7.243-1.511,10.306,0.578c17.066,11.632,35.985,19.478,56.231,23.318       c4.72,0.896,8.136,5.021,8.136,9.825v119.487c0,3.632-1.969,6.978-5.144,8.741l-60,33.333       C169.692,500.537,168.019,500.956,166.347,500.956z M176.347,330.996v142.965l40-22.222V346.212       C202.363,342.849,188.98,337.757,176.347,330.996z"/></g><g><path d="M346.348,500.956c-1.672,0-3.345-0.419-4.856-1.259l-60-33.333c-3.175-1.764-5.144-5.109-5.144-8.741V338.136       c0-4.804,3.416-8.93,8.136-9.825c20.247-3.841,39.166-11.687,56.232-23.318c3.063-2.089,7.028-2.311,10.305-0.578       c3.277,1.732,5.327,5.135,5.327,8.841v177.701c0,3.543-1.875,6.822-4.929,8.619       C349.855,500.495,348.102,500.956,346.348,500.956z M296.348,451.739l40,22.222V330.997c-12.633,6.76-26.016,11.852-40,15.215       V451.739z"/></g><g><path d="M286.348,467.623c-1.672,0-3.345-0.419-4.856-1.259l-25.144-13.969l-25.144,13.969       c-3.097,1.722-6.874,1.674-9.928-0.122c-3.054-1.797-4.929-5.076-4.929-8.619V338.136c0-2.979,1.328-5.802,3.622-7.702       c2.294-1.899,5.315-2.677,8.242-2.123c18.504,3.511,37.771,3.511,56.272,0c2.93-0.554,5.948,0.224,8.242,2.123       c2.294,1.9,3.622,4.724,3.622,7.702v119.487c0,3.543-1.875,6.822-4.929,8.619C289.855,467.162,288.102,467.623,286.348,467.623       z M256.347,430.956c1.673,0,3.346,0.42,4.856,1.259l15.145,8.413V349.78c-13.279,1.563-26.722,1.563-40,0v90.848l15.144-8.413       C253.001,431.376,254.674,430.956,256.347,430.956z"/></g><g><path d="M256.347,350.956c-10.666,0-21.387-1.008-31.864-2.995c-22.962-4.356-44.417-13.253-63.769-26.443       c-46.566-31.739-74.368-84.286-74.368-140.561c0-93.738,76.262-170,170-170c93.739,0,170,76.262,170,170       c0,56.275-27.801,108.821-74.368,140.561c-19.351,13.19-40.805,22.087-63.768,26.443       C277.734,349.948,267.014,350.956,256.347,350.956z M256.347,30.957c-82.71,0-150,67.29-150,150       c0,49.655,24.536,96.024,65.632,124.036c17.066,11.632,35.985,19.478,56.231,23.318c18.503,3.512,37.771,3.512,56.272,0       c20.247-3.841,39.166-11.686,56.232-23.318c41.097-28.012,65.632-74.38,65.632-124.036       C406.348,98.246,339.058,30.957,256.347,30.957z"/></g><g><path d="M302.129,251.858c-2.063,0-4.125-0.636-5.878-1.91l-39.904-28.992l-39.904,28.992c-3.505,2.546-8.251,2.546-11.756,0       c-3.505-2.546-4.971-7.06-3.633-11.181l15.242-46.91l-39.903-28.992c-3.505-2.546-4.971-7.06-3.633-11.181       c1.339-4.12,5.178-6.91,9.511-6.91h49.324l15.242-46.91c1.339-4.12,5.178-6.91,9.511-6.91s8.171,2.79,9.51,6.91l15.243,46.91       h49.323c4.332,0,8.172,2.79,9.511,6.91c1.339,4.121-0.128,8.634-3.633,11.181l-39.903,28.992l15.241,46.91       c1.339,4.12-0.128,8.634-3.633,11.18C306.255,251.222,304.191,251.858,302.129,251.858z M256.347,198.596       c2.063,0,4.125,0.637,5.877,1.91l20.884,15.173l-7.977-24.55c-1.339-4.12,0.128-8.634,3.633-11.18l20.883-15.172h-25.813       c-4.332,0-8.172-2.79-9.511-6.91l-7.977-24.55l-7.977,24.55c-1.339,4.12-5.178,6.91-9.511,6.91h-25.812l20.882,15.172       c3.505,2.546,4.971,7.06,3.633,11.181l-7.977,24.549l20.883-15.172C252.222,199.232,254.285,198.596,256.347,198.596z"/></g></g></g></g></g><g id="Layer_1"/></svg>