<?xml version="1.0" ?><svg viewBox="0 0 64 64" xmlns="http://www.w3.org/2000/svg"><defs><style>.cls-1{fill:none;stroke:#000;stroke-linejoin:round;stroke-width:2px;}</style></defs><title/><g data-name="Layer 9" id="Layer_9"><path class="cls-1" d="M49,10h0a5,5,0,0,1,5,5v7a0,0,0,0,1,0,0H44a0,0,0,0,1,0,0V15A5,5,0,0,1,49,10Z"/><path class="cls-1" d="M46,2h0a10.25,10.25,0,0,1,3,7.24v0A10.25,10.25,0,0,1,52,2h0"/><line class="cls-1" x1="44" x2="49" y1="14" y2="14"/><line class="cls-1" x1="54" x2="49" y1="18" y2="18"/><polyline class="cls-1" points="8 36.22 8 22 56 22 56 36.17"/><path class="cls-1" d="M10,22a9,9,0,0,1,18,0"/><path class="cls-1" d="M44,19.54a4.13,4.13,0,0,0-1.11-.43A4,4,0,0,0,39,16a4.75,4.75,0,0,0-.53.05,4,4,0,0,0-6.94,0A4.75,4.75,0,0,0,31,16a4,4,0,0,0-3.46,2"/><rect class="cls-1" height="4" width="16" x="24" y="26"/><rect class="cls-1" height="4" width="60" x="2" y="58"/><path class="cls-1" d="M18,39.14s0-.09,0-.14a3,3,0,0,0-4.12-2.78,3,3,0,0,0-5.76,0A3,3,0,0,0,4,39s0,.09,0,.14A4,4,0,0,0,5,47a3.93,3.93,0,0,0,2.24-.69,4,4,0,0,0,7.52,0A3.93,3.93,0,0,0,17,47a4,4,0,0,0,1-7.86Z"/><path class="cls-1" d="M7,46l1,3.65a24.66,24.66,0,0,1,1,6.83V58h4V56.48a24.66,24.66,0,0,1,1-6.83L15,46"/><path class="cls-1" d="M38,39.14s0-.09,0-.14a3,3,0,0,0-4.12-2.78,3,3,0,0,0-5.76,0A3,3,0,0,0,24,39s0,.09,0,.14A4,4,0,0,0,25,47a3.93,3.93,0,0,0,2.24-.69,4,4,0,0,0,7.52,0A3.93,3.93,0,0,0,37,47a4,4,0,0,0,1-7.86Z"/><path class="cls-1" d="M27,46l.63,2.19A35.75,35.75,0,0,1,29,58h4a35.75,35.75,0,0,1,1.37-9.81L35,46"/><path class="cls-1" d="M58,39.14s0-.09,0-.14a3,3,0,0,0-4.12-2.78,3,3,0,0,0-5.76,0A3,3,0,0,0,44,39s0,.09,0,.14A4,4,0,0,0,45,47a3.93,3.93,0,0,0,2.24-.69,4,4,0,0,0,7.52,0A3.93,3.93,0,0,0,57,47a4,4,0,0,0,1-7.86Z"/><path class="cls-1" d="M47,46l.63,2.19A35.75,35.75,0,0,1,49,58h4a35.75,35.75,0,0,1,1.37-9.81L55,46"/><line class="cls-1" x1="19" x2="19" y1="13" y2="22"/><line class="cls-1" x1="15" x2="15" y1="14" y2="22"/><polyline class="cls-1" points="17 13 17 5 21 5 21 13"/><line class="cls-1" x1="23" x2="23" y1="14" y2="22"/><polyline class="cls-1" points="21 10 24 7 27 10 23 14"/><polyline class="cls-1" points="17 10 14 7 11 10 15 14"/></g></svg>